<svg viewBox="0 0 476 476" xmlns="http://www.w3.org/2000/svg"><rect width="476" height="476" fill="#F5ECDC"/><path d="M231 231L231 217L231 203L231 189L217 189L203 189L189 189M245 245L245 259L245 273L245 287L245 301L245 315L259 315L273 315L287 315M245 231L259 231L273 231L287 231M231 245L231 259L231 273L231 287L231 301L231 315L231 329M217 231L203 231L189 231L175 231L161 231L147 231L147 217L147 203L147 189M259 245L273 245L287 245L301 245L315 245L329 245M245 217L245 203L245 189L245 175L245 161L245 147L245 133M217 245L203 245L189 245L175 245M217 259L217 273L217 287L217 301L217 315M259 259L273 259L287 259L301 259L315 259L329 259L329 273L329 287L329 301M259 217L259 203L259 189L259 175L259 161L259 147L259 133M273 217L287 217L301 217L315 217M203 259L189 259L175 259L161 259L147 259M273 203L273 189L273 175L273 161L273 147L273 133M203 273L189 273L175 273L161 273L161 287L161 301L161 315L161 329M287 203L301 203L315 203L329 203M203 287L203 301L203 315M231 175L231 161L231 147L231 133M301 231L315 231L329 231L343 231L357 231L371 231L385 231M217 175L217 161L217 147L203 147L189 147M175 217L175 203L175 189L175 175L175 161M287 189L287 175L287 161L287 147L287 133L287 119L287 105M301 273L301 287L301 301L301 315M161 245L147 245L133 245L119 245L105 245M175 287L175 301L175 315L175 329M161 217L161 203L161 189L161 175M189 301L189 315L189 329L189 343L189 357L175 357L161 357M301 189L301 175L301 161M315 273L315 287L315 301L315 315L315 329L315 343L315 357M315 189L329 189L343 189L357 189L371 189L385 189L399 189L413 189L427 189M329 217L343 217L357 217L371 217M217 329L217 343L217 357M259 329L259 343L259 357M273 329L273 343L273 357L273 371M147 273L147 287L147 301L147 315L147 329M203 329L203 343L203 357L203 371M315 175L329 175L343 175L357 175L371 175M287 329L287 343L287 357L287 371M133 231L119 231L105 231L91 231M343 245L357 245L371 245M133 217L119 217L105 217L91 217L77 217M217 133L217 119L217 105L217 91L217 77M315 161L329 161L343 161M133 203L119 203L105 203L91 203L77 203M343 203L357 203L371 203L385 203L399 203L413 203M301 329L301 343L301 357L301 371L315 371L329 371L343 371L357 371M147 175L133 175L119 175L105 175L91 175L77 175M203 133L203 119L203 105L203 91L203 77M189 133L189 119L189 105M133 189L119 189L105 189L91 189M231 119L231 105L231 91L231 77L231 63L231 49L231 35M147 161L133 161L119 161L105 161L91 161M245 119L245 105L245 91M259 119L259 105L259 91L273 91M133 301L133 315L133 329L133 343L133 357L133 371L133 385L133 399M329 329L343 329L357 329M329 343L343 343L357 343M147 343L147 357L147 371L147 385L147 399M357 161L371 161L385 161L399 161M119 329L119 343L119 357M329 357L343 357L357 357M385 175L399 175L413 175L427 175M301 385L315 385L329 385M245 77L245 63L245 49L245 35M259 77L259 63L259 49M77 189L63 189L49 189M119 371L119 385L119 399M329 399L343 399L357 399M329 315L343 315M175 371L175 385M385 217L399 217M161 371L161 385M217 63L217 49M77 161L63 161M343 385L357 385M63 175L49 175" fill="none" stroke="#5A4632" stroke-width="4.2" stroke-linecap="round" stroke-linejoin="round"/><path d="M190 183L184 189L190 195M286 321L292 315L286 309M286 237L292 231L286 225M225 328L231 334L237 328M153 190L147 184L141 190M328 251L334 245L328 239M251 134L245 128L239 134M176 239L170 245L176 251M211 314L217 320L223 314M323 300L329 306L335 300M265 134L259 128L253 134M314 223L320 217L314 211M148 253L142 259L148 265M279 134L273 128L267 134M155 328L161 334L167 328M328 209L334 203L328 197M197 314L203 320L209 314M237 134L231 128L225 134M384 237L390 231L384 225M190 141L184 147L190 153M181 162L175 156L169 162M293 106L287 100L281 106M295 314L301 320L307 314M106 239L100 245L106 251M169 328L175 334L181 328M167 176L161 170L155 176M162 351L156 357L162 363M307 162L301 156L295 162M309 356L315 362L321 356M426 195L432 189L426 183M370 223L376 217L370 211M211 356L217 362L223 356M253 356L259 362L265 356M267 370L273 376L279 370M141 328L147 334L153 328M197 370L203 376L209 370M370 181L376 175L370 169M281 370L287 376L293 370M92 225L86 231L92 237M370 251L376 245L370 239M78 211L72 217L78 223M223 78L217 72L211 78M342 167L348 161L342 155M78 197L72 203L78 209M412 209L418 203L412 197M356 377L362 371L356 365M78 169L72 175L78 181M209 78L203 72L197 78M195 106L189 100L183 106M92 183L86 189L92 195M237 36L231 30L225 36M92 155L86 161L92 167M251 92L245 86L239 92M272 97L278 91L272 85M127 398L133 404L139 398M356 335L362 329L356 323M356 349L362 343L356 337M141 398L147 404L153 398M398 167L404 161L398 155M113 356L119 362L125 356M356 363L362 357L356 351M426 181L432 175L426 169M328 391L334 385L328 379M251 36L245 30L239 36M265 50L259 44L253 50M50 183L44 189L50 195M113 398L119 404L125 398M356 405L362 399L356 393M342 321L348 315L342 309M169 384L175 390L181 384M398 223L404 217L398 211M155 384L161 390L167 384M223 50L217 44L211 50M64 155L58 161L64 167M356 391L362 385L356 379M50 169L44 175L50 181" fill="none" stroke="#5A4632" stroke-width="4.2" stroke-linecap="round" stroke-linejoin="round"/></svg>